<svg width="410" height="391" viewBox="0 0 410 391" fill="none" xmlns="http://www.w3.org/2000/svg">
<path fill-rule="evenodd" clip-rule="evenodd" d="M402.628 -45.812C407.975 -51.9376 409.977 -59.3157 409.977 -67.3542H410C409.955 -77.6699 406.382 -86.5054 399.102 -93.8835C389.045 -104.062 376.691 -108.093 362.721 -106.75C349.434 -105.474 336.465 -102.15 323.701 -98.2557C306.474 -93.0002 289.378 -87.3933 272.263 -81.7801L271.326 -81.4728C269.76 -80.9615 268.193 -80.4511 266.627 -79.9406C253.47 -75.6535 240.315 -71.3668 227.323 -66.6255C206.574 -59.0652 185.846 -51.3683 165.369 -43.0794C144.278 -34.5399 123.779 -24.6113 103.689 -13.8402C84.19 -3.36516 65.1465 7.81583 47.7866 21.6839C38.1625 29.358 29.0844 37.5559 22.5091 48.1449C11.8611 65.3149 10.9965 82.872 21.0529 100.543C27.651 112.111 37.0704 121.243 47.3543 129.532C59.3902 139.232 72.4727 147.294 85.8964 154.9C104.644 165.534 124.052 174.802 143.778 183.41C160.569 190.742 177.519 197.733 194.606 204.292C216.042 212.52 237.655 220.306 259.249 228.085L260.268 228.453C274.034 233.417 287.89 238.154 301.768 242.776C314.851 247.126 327.956 251.475 341.198 255.324C348.433 257.441 355.896 259.354 363.358 259.878C377.396 260.834 386.907 252.568 394.551 241.979C399.307 235.398 399.921 227.565 399.875 219.686C399.83 209.028 396.099 199.897 387.68 193.339C383.107 189.786 377.988 186.552 372.618 184.503C351.504 176.487 330.254 168.859 308.958 161.367C299.297 157.973 289.576 154.764 279.859 151.556C273.603 149.491 267.348 147.426 261.11 145.313C246.799 140.462 232.511 135.543 218.268 130.534C216.844 130.034 215.419 129.535 213.994 129.037C203.922 125.513 193.838 121.985 183.912 118.055C165.483 110.745 147.282 102.866 130.013 93.0283C124.37 89.8174 118.91 86.1967 113.677 82.3483C108.831 78.7731 108.762 74.2187 112.698 69.6871C116.905 64.8526 122.55 62.1542 128.097 59.502L128.466 59.3259C139.637 53.9973 150.899 48.828 162.366 44.2281C183.935 35.5976 205.618 27.172 227.414 19.1335C248.528 11.3683 269.802 4.08125 291.075 -3.20576C301.98 -6.93861 312.993 -10.3642 324.002 -13.7885C325.351 -14.2079 326.699 -14.6272 328.047 -15.0471C338.058 -18.1441 348.092 -21.1728 358.194 -24.0193C368.659 -26.9568 379.012 -30.2132 388.727 -35.2458C393.983 -37.9557 398.738 -41.3487 402.628 -45.812ZM374.825 376.903C379.285 368.978 380.149 360.484 380.081 355.019L380.104 354.996C379.672 342.472 377.328 335.002 372.482 329.514C367.727 324.117 361.561 320.611 355.031 317.719C348.945 315.031 342.87 312.327 336.795 309.623C330.72 306.919 324.646 304.215 318.559 301.528L318.554 301.525C304.131 295.15 289.708 288.775 275.239 282.49C268.932 279.74 262.605 277.034 256.279 274.329C250.717 271.951 245.156 269.573 239.61 267.165C233.73 264.609 227.858 262.034 221.987 259.459C213.679 255.815 205.372 252.172 197.04 248.583C188.059 244.723 179.056 240.915 170.056 237.108C163.233 234.222 156.411 231.337 149.602 228.43C144.844 226.396 140.099 224.327 135.354 222.257C129.367 219.646 123.379 217.034 117.363 214.494C101.459 207.776 85.4869 201.149 69.5149 194.545C68.5917 194.163 67.6692 193.779 66.7465 193.395C56.0722 188.948 45.3905 184.499 33.7258 183.137C19.8698 181.52 8.9488 186.006 3.30628 200.124C0.644286 206.842 -0.28855 213.901 0.0754836 221.029C0.2575 224.741 1.21309 228.498 2.46445 232.005C5.05819 239.269 10.7235 244.143 16.6845 248.515C30.4008 258.57 45.7894 265.674 61.1191 272.751L61.8929 273.108C73.9183 278.655 86.0637 283.935 98.2066 289.214C101.916 290.826 105.625 292.439 109.331 294.059C110.979 294.778 112.627 295.498 114.275 296.219C130.195 303.176 146.135 310.141 162.093 317.013C182.047 325.598 202.046 334.092 222.068 342.563C223.978 343.371 225.888 344.179 227.798 344.987C248.231 353.631 268.671 362.279 289.186 370.754C299.616 375.062 310.134 379.181 320.646 383.298C324.306 384.732 327.965 386.165 331.619 387.606C338.968 390.498 346.613 391.727 354.439 390.566C363.336 389.268 370.252 384.987 374.825 376.903Z" fill="#FE2F01"/>
</svg>
