<?xml version="1.0" encoding="UTF-8"?>
<svg id="Layer_2" data-name="Layer 2" xmlns="http://www.w3.org/2000/svg" viewBox="0 0 315.8 52.38">
  <defs>
    <style>
      .cls-1 {
        fill: #2f3731;
      }

      .cls-1, .cls-2, .cls-3, .cls-4 {
        stroke-width: 0px;
      }

      .cls-2 {
        fill: #f1f2ee;
      }

      .cls-3 {
        fill: #001c37;
      }

      .cls-4 {
        fill: #0094c4;
      }
    </style>
  </defs>
  <g id="katman_1" data-name="katman 1">
    <g>
      <path class="cls-1" d="m203.73,23.53c0,2.23-.28,4.35-.85,6.36-.57,2.01-1.38,3.89-2.43,5.62-1.05,1.74-2.31,3.31-3.77,4.72-1.46,1.41-3.09,2.61-4.86,3.6-1.78.99-3.7,1.75-5.76,2.29-2.06.54-4.2.8-6.41.8h-15.57c-.38,0-.72-.08-1.01-.25-.29-.17-.44-.53-.44-1.07V1.48c0-.44.12-.8.36-1.07s.61-.41,1.09-.41h15.57c2.21,0,4.34.27,6.4.82,2.05.55,3.97,1.33,5.75,2.34,1.78,1.01,3.41,2.22,4.88,3.63,1.47,1.41,2.73,2.99,3.77,4.74,1.04,1.75,1.85,3.63,2.43,5.65.58,2.02.87,4.14.87,6.35Zm-28.9-12.19v24.29h2.65c.48,0,.96-.02,1.42-.05s.93-.07,1.39-.11c1.58-.13,3.05-.51,4.42-1.15,1.37-.64,2.56-1.48,3.59-2.53,1.02-1.04,1.82-2.27,2.4-3.68.58-1.41.87-2.95.87-4.61,0-1.77-.33-3.39-1-4.88s-1.56-2.77-2.7-3.85-2.47-1.93-4-2.53c-1.53-.6-3.15-.9-4.88-.9h-4.17Z"/>
      <path class="cls-1" d="m212.1,1.42c0-.38.12-.71.35-.98.23-.27.58-.41,1.04-.41h9.29c.32,0,.65.13,1.01.38.36.25.54.59.54,1.01v44.13c0,.93-.52,1.39-1.55,1.39h-9.29c-.93,0-1.39-.46-1.39-1.39V1.42Z"/>
      <path class="cls-1" d="m247.42,46.28c-.23-.38-.44-.77-.62-1.17s-.35-.81-.52-1.23L230.07,1.45c0-.11-.02-.2-.05-.28-.03-.08-.05-.17-.05-.25,0-.59.39-.88,1.17-.88h10.17c.8,0,1.35.4,1.64,1.2l9.63,28.74c.86-2.4,1.69-4.8,2.48-7.19.79-2.39,1.57-4.79,2.34-7.19.77-2.4,1.55-4.8,2.34-7.19.79-2.39,1.62-4.79,2.48-7.19.29-.8.87-1.2,1.74-1.2h9.95c.48,0,.83.09,1.03.27.2.18.3.42.3.71,0,.17-.01.28-.03.35v.1l-16.3,42.42c-.11.29-.23.62-.38.98-.15.36-.32.69-.5,1-.19.31-.41.56-.66.77-.25.21-.54.32-.85.32h-7.8c-.65,0-1.08-.22-1.29-.66Z"/>
      <path class="cls-1" d="m280.93,1.48c0-.44.12-.79.36-1.06s.58-.4,1.02-.4h31.34c.46,0,.82.14,1.07.41.25.27.38.64.38,1.1v7.81c0,.36-.13.7-.38,1.02-.25.32-.62.49-1.11.49h-20.47v7.83h15.79c.4,0,.73.1.99.28.26.19.39.5.39.95v6.82c0,.29-.12.58-.35.85-.23.27-.57.41-1.01.41h-15.83v8.09h21.23c.95,0,1.42.48,1.42,1.45v7.94c0,.21-.08.4-.25.57-.08.59-.52.88-1.29.88h-31.94c-.42,0-.76-.11-1.01-.33-.25-.22-.38-.56-.38-1.03V1.48Z"/>
    </g>
    <path class="cls-4" d="m23.17,19.06L31.38,1.48c.14-.27.25-.47.34-.6.09-.12.18-.21.27-.27.09-.06.19-.09.29-.1.1-.01.22-.04.36-.08h13.09c.16,0,.29.05.39.15.1.1.15.22.15.36,0,.25-.16.53-.48.85l-16.12,28.53v19.01c0,1.07-.52,1.6-1.56,1.6h-10.18c-.45,0-.8-.14-1.05-.43-.25-.28-.37-.67-.37-1.17v-19.08L.44,1.78c-.29-.29-.44-.58-.44-.85,0-.14.05-.26.14-.36s.22-.15.37-.15h13.09c.16.05.28.07.37.08.09.01.18.05.27.1.09.06.18.15.27.27.09.13.21.32.37.6l8.28,17.58Z"/>
    <path class="cls-4" d="m50.08,26.43c0-2.4.31-4.71.92-6.92s1.49-4.28,2.62-6.22c1.13-1.94,2.49-3.7,4.07-5.29,1.58-1.59,3.33-2.94,5.26-4.06,1.93-1.12,4-1.99,6.21-2.62,2.21-.62,4.52-.94,6.92-.94s4.68.31,6.91.94c2.22.62,4.3,1.5,6.23,2.62,1.93,1.12,3.69,2.48,5.27,4.06,1.59,1.59,2.94,3.35,4.07,5.29,1.12,1.94,2,4.01,2.62,6.22.62,2.21.94,4.52.94,6.92s-.31,4.71-.94,6.92c-.62,2.21-1.5,4.27-2.62,6.19-1.12,1.92-2.48,3.66-4.07,5.24-1.59,1.58-3.35,2.93-5.27,4.06-1.93,1.13-4,2.01-6.23,2.62-2.22.61-4.53.92-6.91.92s-4.71-.31-6.92-.92c-2.21-.61-4.28-1.48-6.21-2.62-1.93-1.13-3.68-2.49-5.26-4.06-1.58-1.58-2.93-3.32-4.07-5.24-1.13-1.92-2.01-3.98-2.62-6.19-.61-2.21-.92-4.52-.92-6.92Zm13.16-.03c0,1.88.32,3.64.95,5.27.63,1.63,1.52,3.05,2.67,4.27,1.14,1.21,2.5,2.17,4.06,2.86,1.56.69,3.28,1.04,5.16,1.04s3.6-.34,5.18-1.04c1.57-.69,2.93-1.64,4.08-2.86,1.14-1.21,2.03-2.64,2.67-4.27s.95-3.39.95-5.27-.32-3.61-.95-5.25c-.63-1.64-1.52-3.08-2.67-4.3-1.14-1.22-2.5-2.19-4.08-2.89-1.57-.7-3.3-1.05-5.18-1.05s-3.6.35-5.16,1.05c-1.56.7-2.91,1.67-4.06,2.89-1.14,1.22-2.03,2.66-2.67,4.3-.63,1.64-.95,3.4-.95,5.25Z"/>
    <path class="cls-4" d="m124.2,30.39c0,1.68.23,3.1.7,4.27.47,1.17,1.08,2.12,1.84,2.86.76.74,1.65,1.28,2.66,1.62,1.01.34,2.06.51,3.15.51s2.21-.2,3.22-.6c1.01-.4,1.9-.99,2.66-1.77.76-.78,1.36-1.75,1.81-2.91s.66-2.48.66-3.98V1.53c0-.41.14-.76.42-1.05s.66-.44,1.14-.44h9.93c.52,0,.93.15,1.22.46s.44.65.44,1.04v28.66c0,3.97-.58,7.3-1.75,10s-2.74,4.87-4.71,6.51-4.26,2.82-6.85,3.54c-2.6.71-5.32,1.07-8.18,1.07s-5.59-.37-8.19-1.11c-2.61-.74-4.9-1.94-6.87-3.6-1.97-1.67-3.54-3.84-4.71-6.53-1.17-2.69-1.75-5.98-1.75-9.88V1.53c0-.38.13-.73.39-1.04.26-.31.58-.46.97-.46h10.17c.34,0,.7.14,1.07.43.37.28.56.64.56,1.07v28.86Z"/>
    <rect class="cls-2" x="49.74" y="20.53" width="53.18" height="11.99"/>
    <path class="cls-3" d="m50.86,22.62h1.99c1.26,0,1.87.7,1.87,1.98v4.05c0,1.28-.62,1.98-1.87,1.98h-1.99v-8Zm1.26,1.14v5.71h.71c.4,0,.64-.21.64-.78v-4.16c0-.57-.24-.78-.64-.78h-.71Z"/>
    <path class="cls-3" d="m55.52,22.62h1.26v8h-1.26v-8Z"/>
    <path class="cls-3" d="m59.58,29.14h.02l.95-6.53h1.15l-1.23,8h-1.87l-1.23-8h1.27l.95,6.53Z"/>
    <path class="cls-3" d="m62.28,22.62h1.26v8h-1.26v-8Z"/>
    <path class="cls-3" d="m65.6,24.82h-.02v5.79h-1.13v-8h1.58l1.27,4.79h.02v-4.79h1.12v8h-1.29l-1.54-5.79Z"/>
    <path class="cls-3" d="m71.22,26.16h1.76v2.54c0,1.28-.64,2.01-1.87,2.01s-1.87-.73-1.87-2.01v-4.16c0-1.28.64-2.01,1.87-2.01s1.87.73,1.87,2.01v.78h-1.19v-.86c0-.57-.25-.79-.65-.79s-.65.22-.65.79v4.32c0,.57.25.78.65.78s.65-.21.65-.78v-1.47h-.57v-1.14Z"/>
    <path class="cls-3" d="m79.21,27.63v1.06c0,1.28-.64,2.01-1.87,2.01s-1.87-.73-1.87-2.01v-4.16c0-1.28.64-2.01,1.87-2.01s1.87.73,1.87,2.01v.78h-1.19v-.86c0-.57-.25-.79-.65-.79s-.65.22-.65.79v4.32c0,.57.25.78.65.78s.65-.21.65-.78v-1.14h1.19Z"/>
    <path class="cls-3" d="m81.23,25.99h1.73v1.14h-1.73v2.34h2.17v1.14h-3.43v-8h3.43v1.14h-2.17v2.23Z"/>
    <path class="cls-3" d="m85.32,24.82h-.02v5.79h-1.13v-8h1.58l1.27,4.79h.02v-4.79h1.12v8h-1.29l-1.54-5.79Z"/>
    <path class="cls-3" d="m88.69,22.62h3.89v1.14h-1.31v6.86h-1.26v-6.86h-1.31v-1.14Z"/>
    <path class="cls-3" d="m94.38,25.99h1.73v1.14h-1.73v2.34h2.17v1.14h-3.43v-8h3.43v1.14h-2.17v2.23Z"/>
    <path class="cls-3" d="m99.96,30.62c-.07-.21-.11-.33-.11-.98v-1.26c0-.74-.25-1.02-.82-1.02h-.43v3.26h-1.26v-8h1.9c1.3,0,1.86.61,1.86,1.84v.63c0,.82-.26,1.35-.82,1.61v.02c.63.26.83.86.83,1.69v1.23c0,.39.01.67.14.97h-1.28Zm-1.37-6.86v2.46h.49c.47,0,.75-.21.75-.85v-.79c0-.57-.19-.82-.64-.82h-.61Z"/>
  </g>
</svg>